<svg xmlns="http://www.w3.org/2000/svg" viewBox="0 0 1047 470" role="img" aria-labelledby="mn8-logo-title mn8-logo-desc" style="color:#123B5D">
  <title id="mn8-logo-title">MN8 — logo maestro</title>
  <desc id="mn8-logo-desc">Wordmark MN8 Tecno con trazos finos redondeados, ocho compacto de dos lóbulos horizontales y brújula central teal.</desc>
  <g fill="none" stroke="currentColor" stroke-width="37" stroke-linecap="round" stroke-linejoin="round">
    <path d="M99 348V162L234 285L368 162V348"/>
    <path d="M455 348V162L680 348V162"/>
  </g>
  <path id="mn8-eight" d="M802 145H932A52 52 0 0 1 984 197V201A52 52 0 0 1 932 253H802A52 52 0 0 1 750 201V197A52 52 0 0 1 802 145ZM802 252H932A52 52 0 0 1 984 304V312A52 52 0 0 1 932 364H802A52 52 0 0 1 750 312V304A52 52 0 0 1 802 252ZM924 176H811A25 25 0 0 0 786 201V210A25 25 0 0 0 811 235H924A25 25 0 0 0 949 210V201A25 25 0 0 0 924 176ZM924 271H811A25 25 0 0 0 786 296V307A25 25 0 0 0 811 332H924A25 25 0 0 0 949 307V296A25 25 0 0 0 924 271Z" fill="currentColor" fill-rule="nonzero"/>
  <g aria-label="Brújula MN8">
    <path d="M867.5 194L899 255L867.5 316L836 255Z" fill="currentColor"/>
    <path d="M867.5 201L893 255L867.5 309L842 255Z" fill="#F7F5EF"/>
    <path d="M867.5 209L887 255L867.5 301L848 255Z" fill="#0F1724"/>
    <path d="M848 255L867.5 301L887 255Z" fill="#2A9D8F"/>
    <path d="M867.5 222L872 255L867.5 263L863 255Z" fill="#F7F5EF" opacity=".86"/>
    <circle cx="867.5" cy="255" r="7" fill="#F7F5EF"/>
  </g>
</svg>
